<svg id="visual" viewBox="0 0 960 150" width="960" height="150" xmlns="http://www.w3.org/2000/svg" xmlns:xlink="http://www.w3.org/1999/xlink" version="1.1"><path d="M0 99L26.7 100.2C53.3 101.3 106.7 103.7 160 107.8C213.3 112 266.7 118 320 117.3C373.3 116.7 426.7 109.3 480 104.5C533.3 99.7 586.7 97.3 640 96.5C693.3 95.7 746.7 96.3 800 102.2C853.3 108 906.7 119 933.3 124.5L960 130L960 151L933.3 151C906.7 151 853.3 151 800 151C746.7 151 693.3 151 640 151C586.7 151 533.3 151 480 151C426.7 151 373.3 151 320 151C266.7 151 213.3 151 160 151C106.7 151 53.3 151 26.7 151L0 151Z" fill="#fff" stroke-linecap="round" stroke-linejoin="miter"></path></svg>